# xmcd CD database file
#
# Track frame offsets:
#	150
#	17624
#	31738
#	45886
#	67332
#	77826
#	92910
#	102720
#	118631
#	133941
#	154284
#	167918
#	187916
#
# Disc length: 2697 seconds
#
# Revision: 0
# Processed by: cddbd v1.5.2PL0 Copyright (c) Steve Scherf et al.
# Submitted via: CDex 1.70beta2
#
DISCID=ad0a870d
DTITLE=Amos Lee - Supply And Demand (Bonus Tracks)
DYEAR=2006
DGENRE=Jazz
TTITLE0=Amos Lee - Shout Out Loud
TTITLE1=Amos Lee - Sympathize
TTITLE2=Amos Lee - Freedom
TTITLE3=Amos Lee - Careless
TTITLE4=Amos Lee - Skipping Stone
TTITLE5=Amos Lee - Supply And Demand
TTITLE6=Amos Lee - Sweet Pea
TTITLE7=Amos Lee - Night Train
TTITLE8=Amos Lee - Southern Girl
TTITLE9=Amos Lee - The Wind
TTITLE10=Amos Lee - Long Line Of Pain
TTITLE11=Amos Lee - Truth (Live)
TTITLE12=Amos Lee - Long Line Of Pain (Live)
EXTD=YEAR: 2006
EXTT0=
EXTT1=
EXTT2=
EXTT3=
EXTT4=
EXTT5=
EXTT6=
EXTT7=
EXTT8=
EXTT9=
EXTT10=
EXTT11=
EXTT12=
PLAYORDER=
